<svg width="677" height="425" viewBox="0 0 677 425" fill="none" xmlns="http://www.w3.org/2000/svg">
<path d="M625.4 245.4L575.1 210.4C574.5 210 573.9 209.5 573.3 209.1C554.9 195.5 546.9 182.9 546.9 168.1C546.9 148.5 562.9 136.2 585.6 136.2C614.4 136.2 628 149.7 645.1 149.7C658.6 149.7 667.8 140.5 667.8 127C667.8 117.2 662.9 109.2 650 103.1C629.7 93.3 607.6 89.6 583.7 89.6C558.6 89.6 536.5 97 520.5 109.2C517.3 111.7 514.1 114.4 511.2 117.2C511.1 117.3 510.9 117.5 510.8 117.6C492.6 137.2 477.3 166 465.2 206.2L451.1 252.8C425.9 335 386.1 374.3 324 374.3C255.9 374.3 212.9 327 212.9 257.1C212.9 188.4 254.4 140.9 314.6 139.3C315.7 139.3 316.8 139.3 317.9 139.3C338.3 139.2 358.4 143.6 376.8 152.2C384.8 155.9 391.5 157.1 397.7 157.1C412.4 157.1 422.2 147.2 422.2 132.5C422.2 123.3 416.7 114.1 403.8 108C380.5 96.3 350.4 89.6 317.9 89.6C220.9 89.6 154 158.3 154 258.4C154 284.8 158.7 309 167.5 330.3C154.7 358 135.3 372.6 109.9 372.6C79.2 372.6 59 354.8 59 314.3V141.1H130.8C147.4 141.1 158.4 131.3 158.4 117.2C158.4 103.1 147.4 93.3 130.8 93.3H59V30.7C59 12.3 46.7 0 29.5 0C12.3 0 0 12.3 0 30.7V152.2V321C0 388.5 38.7 424.1 104.3 424.1C118 424.1 131.6 421.9 144.6 417.4C144.7 417.4 144.7 417.4 144.8 417.4C166.3 409.3 183.6 395.2 195.8 374.8C225 406.3 268.3 424.7 322.2 424.7C350.4 424.7 374.9 419.2 397 407.6H397.1C441.9 384.3 473.8 337 495.9 264.6L508.8 222.3C517.4 233.8 529.5 244.7 545.6 256L591.6 287.9C598.4 292.6 604.6 297.4 610.4 302.1C618.7 311.2 621.1 321.1 621.1 332.7C621.1 359.1 600.2 376.9 570.2 376.9C541.4 376.9 516.8 362.2 503.3 362.2C489.8 362.2 480.6 371.4 480.6 384.9C480.6 394.7 485.5 402.7 498.4 408.8C516.2 417.4 545 424.8 570.8 424.8C603.3 424.8 630.3 415 649.4 397.8C650.3 397 651.2 396.2 652 395.3C667.6 379.5 677 357.8 677 332.8C677 295.8 662.3 271.2 625.4 245.4Z" fill="black"/>
</svg>
