<?xml version="1.0" encoding="UTF-8"?>
<svg version="1.1" xmlns="http://www.w3.org/2000/svg" width="192" height="192">
<path d="M0 0 C1.51930131 -0.01140882 3.03856617 -0.03167993 4.55761719 -0.06152344 C26.60584005 -0.49374684 44.68430122 7.08746709 62.99584961 19.29516602 C62.99584961 19.95516602 62.99584961 20.61516602 62.99584961 21.29516602 C63.55272461 21.54266602 64.10959961 21.79016602 64.68334961 22.04516602 C70.10540115 24.97600469 74.42009369 29.30631068 77.99584961 34.29516602 C77.99584961 34.95516602 77.99584961 35.61516602 77.99584961 36.29516602 C78.65584961 36.29516602 79.31584961 36.29516602 79.99584961 36.29516602 C82.94289362 40.44574897 85.45496604 44.88643816 87.99584961 49.29516602 C88.71901367 50.54620117 88.71901367 50.54620117 89.45678711 51.82250977 C100.11195722 71.67370249 103.15092141 99.58475906 97.37084961 121.48266602 C93.47134893 133.94738573 87.22149615 145.45669621 79.99584961 156.29516602 C79.33584961 156.29516602 78.67584961 156.29516602 77.99584961 156.29516602 C77.74834961 156.85204102 77.50084961 157.40891602 77.24584961 157.98266602 C74.31501094 163.40471756 69.98470494 167.7194101 64.99584961 171.29516602 C64.33584961 171.29516602 63.67584961 171.29516602 62.99584961 171.29516602 C62.99584961 171.95516602 62.99584961 172.61516602 62.99584961 173.29516602 C58.84526666 176.24221002 54.40457746 178.75428244 49.99584961 181.29516602 C49.16182617 181.77727539 48.32780273 182.25938477 47.46850586 182.75610352 C40.05875064 186.73330546 32.04507605 188.98523348 23.99584961 191.29516602 C23.41343506 191.47619873 22.83102051 191.65723145 22.23095703 191.84375 C16.940049 192.91233426 11.37791562 192.56230563 5.99169922 192.59033203 C4.47239791 192.60174085 2.95313305 192.62201196 1.43408203 192.65185547 C-20.61414083 193.08407887 -38.69260201 185.50286494 -57.00415039 173.29516602 C-57.00415039 172.63516602 -57.00415039 171.97516602 -57.00415039 171.29516602 C-57.56102539 171.04766602 -58.11790039 170.80016602 -58.69165039 170.54516602 C-64.11370193 167.61432734 -68.42839448 163.28402135 -72.00415039 158.29516602 C-72.00415039 157.63516602 -72.00415039 156.97516602 -72.00415039 156.29516602 C-72.66415039 156.29516602 -73.32415039 156.29516602 -74.00415039 156.29516602 C-76.9511944 152.14458306 -79.46326682 147.70389387 -82.00415039 143.29516602 C-82.48625977 142.46114258 -82.96836914 141.62711914 -83.46508789 140.76782227 C-94.120258 120.91662955 -97.15922219 93.00557297 -91.37915039 71.10766602 C-87.47964971 58.64294631 -81.22979693 47.13363583 -74.00415039 36.29516602 C-73.34415039 36.29516602 -72.68415039 36.29516602 -72.00415039 36.29516602 C-71.75665039 35.73829102 -71.50915039 35.18141602 -71.25415039 34.60766602 C-68.32331172 29.18561447 -63.99300572 24.87092193 -59.00415039 21.29516602 C-58.34415039 21.29516602 -57.68415039 21.29516602 -57.00415039 21.29516602 C-57.00415039 20.63516602 -57.00415039 19.97516602 -57.00415039 19.29516602 C-52.85356744 16.34812201 -48.41287824 13.83604959 -44.00415039 11.29516602 C-43.17012695 10.81305664 -42.33610352 10.33094727 -41.47680664 9.83422852 C-34.06705142 5.85702657 -26.05337683 3.60509855 -18.00415039 1.29516602 C-17.13052856 1.02361694 -17.13052856 1.02361694 -16.23925781 0.74658203 C-10.94834979 -0.32200223 -5.3862164 0.0280264 0 0 Z " fill="#010101" transform="translate(93.004150390625,-0.295166015625)"/>
<path d="M0 0 C4.16624874 1.71845272 8.08446813 3.77391082 12 6 C11.17707746 9.98467756 9.33946269 12.67947232 7 16 C4.03824877 15.38722388 2.61941217 14.74627478 0 13 C-3.08365871 12.7497843 -3.08365871 12.7497843 -6 13 C-7.94747563 14.94747563 -7.1326392 17.86269772 -7.13671875 20.45117188 C-7.13091797 21.7437793 -7.13091797 21.7437793 -7.125 23.0625 C-7.12886719 23.89716797 -7.13273437 24.73183594 -7.13671875 25.59179688 C-7.12857378 30.81679405 -6.75318577 35.82931989 -6 41 C-1.72467799 40.97149785 1.98406932 40.51094422 6 39 C8.46239845 36.35916688 10.07670469 33.61771221 11.88671875 30.49609375 C18.67606368 18.78770125 31.67739584 3.8612538 45 0 C50.00850891 -0.74229071 53.75367024 -0.57700452 58.375 1.5625 C62.25405032 5.1644753 64.31592797 8.94778391 66 14 C66.06970052 16.39490986 66.08448003 18.79167691 66.0625 21.1875 C66.05347656 22.45980469 66.04445313 23.73210938 66.03515625 25.04296875 C66.02355469 26.01878906 66.01195312 26.99460937 66 28 C62.04 28 58.08 28 54 28 C53.93941406 27.00097656 53.87882812 26.00195312 53.81640625 24.97265625 C53.73261719 23.68230469 53.64882812 22.39195313 53.5625 21.0625 C53.48128906 19.77472656 53.40007812 18.48695312 53.31640625 17.16015625 C53.35080812 14.13976043 53.35080812 14.13976043 52 13 C48.87520856 12.46649902 46.76964279 12.55204384 44 14.1640625 C34.58840385 21.11580965 26.31097578 30.16861596 20 40 C20.71841064 39.97905273 21.43682129 39.95810547 22.17700195 39.93652344 C36.53982251 39.57456066 50.03772896 39.66284827 63.95556641 43.44873047 C65.92153166 43.97884147 67.90416888 44.44590085 69.88671875 44.91015625 C80.31525068 47.51447071 89.80160682 51.90902333 96 61 C97.58872488 65.76617463 98.15868688 70.42144682 96.046875 75.12109375 C90.79754124 82.85933576 82.10675512 88.17864898 73 90 C72.30062798 88.5682384 71.61587282 87.12932968 70.9375 85.6875 C70.55464844 84.88699219 70.17179687 84.08648437 69.77734375 83.26171875 C69 81 69 81 70 78 C72.36328125 76.75390625 72.36328125 76.75390625 75.3125 75.5625 C79.37730375 73.91812679 82.15024851 72.38071933 85 69 C85.39461049 66.90190512 85.39461049 66.90190512 84 65 C81.65688651 63.40468868 79.54033694 62.2020818 77 61 C76.33355469 60.67 75.66710937 60.34 74.98046875 60 C69.35491575 57.47786065 63.5653389 56.09730989 57.5625 54.8125 C56.7880957 54.64556641 56.01369141 54.47863281 55.21582031 54.30664062 C44.84198568 52.19979414 34.36666316 51.81465522 23.8125 51.4375 C22.66974609 51.39431641 21.52699219 51.35113281 20.34960938 51.30664062 C17.56649189 51.20183704 14.78330535 51.09966701 12 51 C11.69731201 51.7734375 11.39462402 52.546875 11.08276367 53.34375 C9.63937376 56.88469301 7.77897728 60.15902687 5.92578125 63.5 C4.58231395 67.12792859 5.22946513 69.26307687 6.77416992 72.74511719 C7.78138902 74.81654312 8.84597516 76.8467325 9.9375 78.875 C10.33791504 79.62096436 10.73833008 80.36692871 11.15087891 81.13549805 C19.17660196 95.83168925 30.49537042 115.24768521 46 123 C49.04173894 123.16670273 49.04173894 123.16670273 52 123 C54.37314007 120.62685993 53.31190077 114.14799276 53.31469727 110.83227539 C53.11449179 97.9989858 49.17687386 86.6794743 44.28686523 74.93725586 C43.99110596 74.22061768 43.69534668 73.50397949 43.390625 72.765625 C43.12282227 72.13430664 42.85501953 71.50298828 42.57910156 70.85253906 C42 69 42 69 42 65 C48.38216054 61.93165359 48.38216054 61.93165359 50.99511719 62.22070312 C53 63 53 63 54.125 64.69555664 C54.41375 65.42637451 54.7025 66.15719238 55 66.91015625 C55.32798584 67.72782471 55.65597168 68.54549316 55.99389648 69.38793945 C56.32591064 70.27054443 56.6579248 71.15314941 57 72.0625 C57.34812744 72.96121826 57.69625488 73.85993652 58.05493164 74.78588867 C62.8380128 87.45080668 66.14571518 100.39083093 66.25 114 C66.270625 114.67289062 66.29125 115.34578125 66.3125 116.0390625 C66.36233329 122.49247314 64.80822511 126.96574675 60.5 131.8125 C56.08359967 135.67685029 53.53704369 136.57934222 47.80859375 136.4296875 C33.60413536 134.25654366 22.79566141 120.50712098 14.640625 109.6640625 C10.46834214 103.96153534 6.71218137 98.00953135 3 92 C2.08149711 90.52816632 1.16221541 89.05681839 0.2421875 87.5859375 C-0.18465332 86.90321777 -0.61149414 86.22049805 -1.05126953 85.51708984 C-1.36435059 85.0164502 -1.67743164 84.51581055 -2 84 C-6.02676496 96.84250396 -8.02821267 108.51572524 -7 122 C-6.67 122.33 -6.34 122.66 -6 123 C-0.48931357 122.67584197 2.54369705 121.13966799 7 118 C7.99 118 8.98 118 10 118 C11.38671875 119.53125 11.38671875 119.53125 12.6875 121.5 C13.12449219 122.1496875 13.56148438 122.799375 14.01171875 123.46875 C14.33785156 123.9740625 14.66398437 124.479375 15 125 C13.52794396 128.83399908 11.58125389 130.17752164 8.0625 132.1875 C6.74958984 132.95126953 6.74958984 132.95126953 5.41015625 133.73046875 C0.59990921 136.26422935 -3.67025536 136.50759473 -9 136 C-14.3142761 133.87428956 -16.64848116 129.76578678 -19.09375 124.76171875 C-23.97026528 109.90095884 -17.82200357 89.43503703 -12.04296875 75.73046875 C-9.63581149 69.98186945 -9.83323032 66.01987446 -12.0625 60.25 C-12.371875 59.5075 -12.68125 58.765 -13 58 C-13 57.01 -13 56.02 -13 55 C-21.43487453 56.70492145 -29.8857671 58.97137283 -37 64 C-38.37464511 66.57170179 -38.37464511 66.57170179 -39 69 C-35.61831569 72.68006822 -32.57478244 74.9785845 -28 77 C-28.56545837 80.95820859 -29.80902348 83.6659053 -32 87 C-39.49947009 86.09097332 -44.23631426 82.21863121 -48.8359375 76.5859375 C-51.73292743 72.63903176 -51.4170532 68.73194974 -51 64 C-48.71616182 56.8630057 -43.0936493 52.60624865 -36.64453125 49.2578125 C-30.44057778 46.47833495 -24.8202192 44.27280877 -18 44 C-18.144375 43.175 -18.28875 42.35 -18.4375 41.5 C-19.50918955 34.83170945 -20.22979537 28.31246985 -20.3125 21.5625 C-20.32925781 20.28503906 -20.34601562 19.00757812 -20.36328125 17.69140625 C-19.69821991 10.93352493 -17.15850482 6.51369172 -12 2 C-7.97535785 -0.68309477 -4.644856 -0.80780104 0 0 Z " fill="#F6F6F6" transform="translate(73,28)"/>
<path d="M0 0 C0.99 0.66 1.98 1.32 3 2 C3.55232034 5.62953365 3.42634387 7.3604842 1.375 10.4375 C-1 12 -1 12 -4.125 11.9375 C-7 11 -7 11 -9 8 C-9.35384949 5.16920408 -9.3920891 3.63169911 -7.875 1.1875 C-5.15523346 -0.53501881 -3.15413751 -0.32855599 0 0 Z " fill="#0A0A0A" transform="translate(74,75)"/>
<path d="M0 0 C0.66 0.33 1.32 0.66 2 1 C-2.95 5.95 -7.9 10.9 -13 16 C-13 11.38794096 -10.11229546 9.20006084 -7 6 C-4.7269604 3.92205163 -2.39561112 1.93491668 0 0 Z " fill="#1C1C1C" transform="translate(114,43)"/>
</svg>
