<?xml version="1.0" encoding="UTF-8"?>
<svg version="1.1" xmlns="http://www.w3.org/2000/svg" width="200" height="200">
<path d="M0 0 C2.03220405 0.92394296 4.06477753 1.84707367 6.09765625 2.76953125 C7.18578613 3.27049316 8.27391602 3.77145508 9.39501953 4.28759766 C15.0368473 6.86113239 20.72452246 9.32847112 26.40991211 11.80389404 C29.12948602 12.98906176 31.84686763 14.17921337 34.56436157 15.36914062 C43.36809781 19.22321636 52.18174482 23.05427649 61 26.875 C62.18924072 27.3903833 63.37848145 27.9057666 64.60375977 28.43676758 C65.74772217 28.93200928 66.89168457 29.42725098 68.0703125 29.9375 C69.73610352 30.66078491 69.73610352 30.66078491 71.43554688 31.39868164 C73.86355436 32.44085663 76.29435906 33.46622512 78.73632812 34.47436523 C79.37238983 34.73954956 80.00845154 35.00473389 80.66378784 35.2779541 C82.43472671 36.01516083 84.20872886 36.74499636 85.98291016 37.47436523 C90.73385251 39.77523948 92.72790902 42.43008098 94.96557617 47.19946289 C96.63042217 52.09746217 96.20220281 57.18710079 96.1875 62.3125 C96.20361328 63.43205078 96.21972656 64.55160156 96.23632812 65.70507812 C96.24255654 76.19994973 96.24255654 76.19994973 92.875 80.875 C89.50297917 84.19187096 84.92484411 85.743043 80.625 87.5625 C79.87992187 87.88283203 79.13484375 88.20316406 78.3671875 88.53320312 C76.53851009 89.31859663 74.70702764 90.09745338 72.875 90.875 C74.50308594 91.58462891 74.50308594 91.58462891 76.1640625 92.30859375 C91.12633225 99.11659194 91.12633225 99.11659194 94.875 107.875 C95.78537701 110.60613104 96.01013618 112.25349141 96.03613281 115.06762695 C96.04574036 115.90892654 96.0553479 116.75022614 96.06524658 117.61701965 C96.0716214 118.97641914 96.0716214 118.97641914 96.078125 120.36328125 C96.08382507 121.2992363 96.08952515 122.23519135 96.09539795 123.19950867 C96.10484483 125.18076447 96.11138069 127.16203597 96.11523438 129.14331055 C96.12492937 132.16548286 96.15595138 135.18697197 96.1875 138.20898438 C96.19403139 140.13541264 96.19928132 142.06184575 96.203125 143.98828125 C96.2154718 144.88847488 96.2278186 145.78866852 96.24053955 146.71614075 C96.21719189 153.33477273 94.90689909 157.45868757 90.5625 162.625 C86.21930115 166.26116648 82.77136078 167.10232372 77.21484375 166.6484375 C71.95845712 166.06222338 67.83816228 164.44084638 63.125 162.125 C61.36579407 161.29820021 59.60529164 160.47415544 57.84375 159.65234375 C56.89113281 159.20487793 55.93851562 158.75741211 54.95703125 158.29638672 C49.84880485 155.9405491 44.68120046 153.72348444 39.51409912 151.50042725 C36.31240864 150.12265866 33.11330052 148.73892033 29.9140625 147.35546875 C29.26229034 147.07374817 28.61051819 146.79202759 27.93899536 146.50177002 C20.28285776 143.19029303 12.64102605 139.84616472 5 136.5 C4.35430054 136.21726227 3.70860107 135.93452454 3.04333496 135.64321899 C2.09907654 135.22971695 2.09907654 135.22971695 1.13574219 134.80786133 C0.51284302 134.53531021 -0.11005615 134.26275909 -0.75183105 133.98194885 C-1.98741801 133.44019196 -3.22221315 132.8966253 -4.45617676 132.35118103 C-7.78247626 130.88376867 -11.12093632 129.45908561 -14.48535156 128.08105469 C-15.20917023 127.77904144 -15.93298889 127.4770282 -16.67874146 127.16586304 C-18.06583989 126.58783782 -19.45748416 126.02055549 -20.85421753 125.46621704 C-26.03798921 123.28469554 -28.3868273 120.58031777 -31.35620117 115.95874023 C-33.19171288 110.98379822 -32.45068068 105.17022911 -32.4375 99.9375 C-32.45361328 98.66197266 -32.46972656 97.38644531 -32.48632812 96.07226562 C-32.48697266 94.84314453 -32.48761719 93.61402344 -32.48828125 92.34765625 C-32.49275269 90.66555054 -32.49275269 90.66555054 -32.49731445 88.94946289 C-32.0792836 85.49748743 -31.19405883 83.64511188 -29.125 80.875 C-26.453125 79.1796875 -26.453125 79.1796875 -23.375 77.75 C-22.3128125 77.24984375 -21.250625 76.7496875 -20.15625 76.234375 C-16.82617234 74.74098966 -13.50294609 73.25688704 -10.125 71.875 C-12.2552883 69.7447117 -14.30559477 68.83269117 -17.02661133 67.61621094 C-23.62188204 64.62655711 -28.39642889 61.88697044 -31.125 54.875 C-32.04387067 52.11838798 -32.26046386 50.43602449 -32.28613281 47.59057617 C-32.29574036 46.72925583 -32.3053479 45.86793549 -32.31524658 44.98051453 C-32.31949646 44.05237442 -32.32374634 43.12423431 -32.328125 42.16796875 C-32.33382507 41.20981766 -32.33952515 40.25166656 -32.34539795 39.26448059 C-32.35484545 37.23614607 -32.36138094 35.20779622 -32.36523438 33.17944336 C-32.37492998 30.08484931 -32.40595177 26.99092228 -32.4375 23.89648438 C-32.4440313 21.9244831 -32.44928127 19.95247709 -32.453125 17.98046875 C-32.4654718 17.05840134 -32.4778186 16.13633392 -32.49053955 15.18632507 C-32.47013311 9.26534008 -31.78373708 4.78991748 -27.625 0.23046875 C-18.52252416 -6.85713614 -9.74437282 -4.63181875 0 0 Z " fill="#1497F5" transform="translate(68.125,19.125)"/>
<path d="M0 0 C0.33 0 0.66 0 1 0 C1.08746928 4.04152915 1.14054982 8.08281305 1.1875 12.125 C1.21263672 13.26710938 1.23777344 14.40921875 1.26367188 15.5859375 C1.35795406 26.39696184 1.35795406 26.39696184 -2 31 C-5.37202083 34.31687096 -9.95015589 35.868043 -14.25 37.6875 C-14.99507813 38.00783203 -15.74015625 38.32816406 -16.5078125 38.65820312 C-18.33648991 39.44359663 -20.16797236 40.22245338 -22 41 C-20.91460937 41.47308594 -19.82921875 41.94617188 -18.7109375 42.43359375 C-3.74866775 49.24159194 -3.74866775 49.24159194 0 58 C0.91037701 60.73113104 1.13513618 62.37849141 1.16113281 65.19262695 C1.17074036 66.03392654 1.1803479 66.87522614 1.19024658 67.74201965 C1.19449646 68.64828598 1.19874634 69.55455231 1.203125 70.48828125 C1.20882507 71.4242363 1.21452515 72.36019135 1.22039795 73.32450867 C1.22984483 75.30576447 1.23638069 77.28703597 1.24023438 79.26831055 C1.24992937 82.29048286 1.28095138 85.31197197 1.3125 88.33398438 C1.31903139 90.26041264 1.32428132 92.18684575 1.328125 94.11328125 C1.3404718 95.01347488 1.3528186 95.91366852 1.36553955 96.84114075 C1.34219189 103.45977273 0.03189909 107.58368757 -4.3125 112.75 C-8.65569885 116.38616648 -12.10363922 117.22732372 -17.66015625 116.7734375 C-22.91654288 116.18722338 -27.03683772 114.56584638 -31.75 112.25 C-33.50920593 111.42320021 -35.26970836 110.59915544 -37.03125 109.77734375 C-37.98386719 109.32987793 -38.93648438 108.88241211 -39.91796875 108.42138672 C-45.02619515 106.0655491 -50.19379954 103.84848444 -55.36090088 101.62542725 C-58.56259136 100.24765866 -61.76169948 98.86392033 -64.9609375 97.48046875 C-65.61270966 97.19874817 -66.26448181 96.91702759 -66.93600464 96.62677002 C-74.59214224 93.31529303 -82.23397395 89.97116472 -89.875 86.625 C-90.52069946 86.34226227 -91.16639893 86.05952454 -91.83166504 85.76821899 C-92.46117065 85.49255096 -93.09067627 85.21688293 -93.73925781 84.93286133 C-94.67360657 84.52403465 -94.67360657 84.52403465 -95.62683105 84.10694885 C-96.86241801 83.56519196 -98.09721315 83.0216253 -99.33117676 82.47618103 C-102.65747626 81.00876867 -105.99593632 79.58408561 -109.36035156 78.20605469 C-110.44607956 77.75303482 -110.44607956 77.75303482 -111.55374146 77.29086304 C-112.94083989 76.71283782 -114.33248416 76.14555549 -115.72921753 75.59121704 C-120.76338098 73.47265618 -123.56627923 70.86744153 -126 66 C-126.06950541 64.45976004 -126.08452357 62.91665012 -126.0625 61.375 C-126.05347656 60.55773437 -126.04445312 59.74046875 -126.03515625 58.8984375 C-126.02355469 58.27195313 -126.01195312 57.64546875 -126 57 C-120.54268541 54.66752183 -115.08405775 52.33815213 -109.62426758 50.01147461 C-107.77267941 49.22193311 -105.92143325 48.431589 -104.07055664 47.64038086 C-94.77272136 43.66636691 -85.48242706 39.72806955 -76.02075195 36.15649414 C-70.36294248 33.99040318 -64.78016804 31.64048815 -59.1875 29.3125 C-57.92095441 28.78673038 -56.6543518 28.26109809 -55.38769531 27.7355957 C-48.34349846 24.81180085 -41.3034098 21.87811496 -34.26367188 18.94360352 C-32.27688425 18.11550709 -30.28990933 17.28785987 -28.30273438 16.46069336 C-23.81123296 14.59089512 -19.32229547 12.71561792 -14.83984375 10.82421875 C-13.2890996 10.17439063 -11.73832069 9.52464544 -10.1875 8.875 C-9.49366211 8.57940186 -8.79982422 8.28380371 -8.08496094 7.97924805 C-5.21296022 6.78136186 -3.14693015 6 0 6 C0 4.02 0 2.04 0 0 Z " fill="#3E00F9" transform="translate(163,69)"/>
<path d="M0 0 C1.08667969 0.39316406 2.17335937 0.78632812 3.29296875 1.19140625 C10.15380858 4.44127775 15.32755762 7.62271157 18 15 C18.92601745 20.71044094 18.85531878 25.28936245 16.25 30.5 C15.5075 31.325 14.765 32.15 14 33 C13.319375 33.763125 12.63875 34.52625 11.9375 35.3125 C8.25718133 38.51793884 4.10319637 38.53257229 -0.58056641 38.48632812 C-7.91741844 37.4428461 -14.52842517 33.86152986 -21.1875 30.75 C-22.70684176 30.05934587 -24.22702052 29.37052995 -25.74804688 28.68359375 C-32.56859057 25.58680442 -39.3114971 22.37332381 -46 19 C-46 17.35 -46 15.7 -46 14 C-42.47931112 12.30841902 -38.93466149 10.6748517 -35.37304688 9.07128906 C-33.63721272 8.28766352 -31.90457289 7.49695141 -30.17382812 6.70214844 C-27.0438029 5.27478512 -23.89892061 3.88512037 -20.75 2.5 C-19.73292969 2.03029785 -18.71585938 1.5605957 -17.66796875 1.07666016 C-11.04499692 -1.78689008 -6.7926502 -2.6094637 0 0 Z " fill="#E0E9FC" transform="translate(145,112)"/>
<path d="M0 0 C0.69802734 0.30147949 1.39605469 0.60295898 2.11523438 0.91357422 C3.71912144 1.60924835 5.32051552 2.31068688 6.91992188 3.01660156 C10.20841459 4.44978524 13.51783896 5.82886225 16.828125 7.2109375 C18.68562138 7.9993743 20.54148004 8.79149298 22.3963623 9.58605957 C24.23366455 10.36804735 26.07825311 11.13284275 27.92285156 11.89746094 C29.05174805 12.38762695 30.18064453 12.87779297 31.34375 13.3828125 C32.36146484 13.81480957 33.37917969 14.24680664 34.42773438 14.69189453 C36.75 16.25 36.75 16.25 37.58789062 18.92919922 C37.66813477 20.07799561 37.66813477 20.07799561 37.75 21.25 C30.40337879 25.07106388 22.91117902 28.36417427 15.25 31.5 C13.11436492 32.37967826 10.97893724 33.25986027 8.84375 34.140625 C7.91240234 34.52250977 6.98105469 34.90439453 6.02148438 35.29785156 C4.57771753 35.90304188 3.15020514 36.54989743 1.75 37.25 C-6.92349447 38.03257093 -14.15517516 33.88514925 -21.25 29.25 C-25.08876045 25.93470689 -26.02101721 23.0273426 -26.66015625 18.06640625 C-26.88413908 13.00669145 -26.74639266 9.29794006 -24.5625 4.6875 C-16.92079833 -3.36726663 -10.18249478 -4.52527123 0 0 Z " fill="#D7F4FC" transform="translate(63.25,52.75)"/>
</svg>
